# xmcd
#
# Track frame offsets:
#	150
#	19386
#	39277
#	52351
#	68791
#	89603
#	108659
#	125048
#	146968
#	178178
#	199567
#	219675
#
# Disc length: 3109 seconds
#
# Revision: 1
# Processed by: cddbd v1.5.2PL0 Copyright (c) Steve Scherf et al.
# Submitted via: audiograbber 1.83.01
#
DISCID=c40c230c
DTITLE=Vargas Blues Band - Lost and Found
DYEAR=2007
DGENRE=Blues
TTITLE0=Get Funky
TTITLE1=Man On The Run
TTITLE2=Open Your Eyes
TTITLE3=If Six Was Nine
TTITLE4=Thrill Is Gone
TTITLE5=Lost And Found
TTITLE6=Voodoo Woman
TTITLE7=I Need Your Love So Bad
TTITLE8=Walking The Back Streets And Cryin
TTITLE9=One Way Out
TTITLE10=Statesboro Blues
TTITLE11=Layla
EXTD=
EXTT0=
EXTT1=
EXTT2=
EXTT3=
EXTT4=
EXTT5=
EXTT6=
EXTT7=
EXTT8=
EXTT9=
EXTT10=
EXTT11=
PLAYORDER=
